<svg xmlns="http://www.w3.org/2000/svg" xmlns:xlink="http://www.w3.org/1999/xlink" viewBox="0 0 1920 1080"><defs><style>.cls-1{fill:none;}.cls-2{isolation:isolate;}.cls-3{fill:#f8b133;}.cls-4{clip-path:url(#clip-path);}.cls-5{fill:#180900;}.cls-6{fill:#f8c1a6;}.cls-7{fill:#ececec;mix-blend-mode:multiply;}.cls-8{fill:#e0af97;}.cls-9{fill:#e64645;}.cls-10{fill:#422918;}</style><clipPath id="clip-path"><circle id="SVGID" class="cls-1" cx="960.35" cy="549.78" r="409.22" transform="translate(-107.48 840.1) rotate(-45)"/></clipPath></defs><g class="cls-2"><g id="Calque_1" data-name="Calque 1"><circle class="cls-3" cx="960.35" cy="549.78" r="409.22" transform="translate(-107.48 840.1) rotate(-45)"/><g class="cls-4"><path class="cls-5" d="M773.06,515.35c-2.29,3.36-9.31,287.94,40.69,346.2h283s77.31-218.48,24.65-346.2H771.38"/><rect class="cls-6" x="886.51" y="671.77" width="156.72" height="105.59"/><path class="cls-7" d="M924.52,748.14c23.61,9.36,49.52,15,74.94,15.25,14.58.11,29.39-1.7,43.76-4.24V671.77H886.51v54.61C897.51,736.07,911.57,743,924.52,748.14Z"/><path class="cls-6" d="M1134.5,473.1c.53-3.89,7.13-10.22,10-12.35,6.44-4.76,12.93.14,14.8,6.33,1.68,5.54,1.84,11.78,2.25,17.53,1,14-1.15,27.78-7.46,40.43a54.32,54.32,0,0,1-18.64,20.6s-8.44,4.2-10.11-5.44C1125.35,540.2,1134.5,473.14,1134.5,473.1Z"/><path class="cls-8" d="M1133.16,481.52c.38-2.78,5.1-7.31,7.16-8.84,4.61-3.4,9.25.1,10.6,4.53,1.2,4,1.31,8.43,1.6,12.54a55.29,55.29,0,0,1-5.34,28.93,38.79,38.79,0,0,1-13.34,14.75s-6,3-7.23-3.9C1126.61,529.53,1133.15,481.55,1133.16,481.52Z"/><path class="cls-6" d="M791.25,473.1c-.53-3.89-7.13-10.22-10-12.35-6.43-4.76-12.91.14-14.79,6.33-1.69,5.54-1.85,11.78-2.25,17.53-1,14,1.14,27.78,7.46,40.43a54.24,54.24,0,0,0,18.64,20.6s8.43,4.2,10.11-5.44C800.4,540.2,791.26,473.14,791.25,473.1Z"/><path class="cls-8" d="M792.59,481.52c-.38-2.78-5.09-7.31-7.16-8.84-4.61-3.4-9.26.1-10.59,4.53-1.21,4-1.31,8.43-1.62,12.54a55.4,55.4,0,0,0,5.35,28.93,38.79,38.79,0,0,0,13.34,14.75s6,3,7.24-3.9C799.15,529.53,792.6,481.55,792.59,481.52Z"/><path class="cls-6" d="M1139.64,485.72c0,44.24-7.63,89-28.49,127.26-18.24,33.48-45.61,60.28-75,81.7-23.83,17.37-49.39,37.6-79.54,35.14-31.44-2.59-55.93-29.38-78.9-50.29a273.45,273.45,0,0,1-73.51-108.92c-9.68-26.48-14.13-56.38-14.13-84.89,0-143,78.25-233,174.77-233S1139.64,342.7,1139.64,485.72Z"/><path class="cls-6" d="M1203.3,825.1,1033.14,774H896.6L726.43,825.1s-78.85,33.53-87.61,139.68h652.1C1282.16,858.63,1203.3,825.1,1203.3,825.1Z"/><path class="cls-9" d="M1203.3,825.1l-94.1-28.23L964.86,941.09,820.11,797l-93.68,28.1s-78.85,33.53-87.61,139.68h652.1C1282.16,858.63,1203.3,825.1,1203.3,825.1Z"/><path class="cls-10" d="M846.25,309.55S930.43,443,1139.1,465.75c0,0,39.49-152.07-107.28-226C1031.82,239.74,919.5,193.38,846.25,309.55Z"/><path class="cls-10" d="M867.83,336.56s-54.35,35.16-77.94,133.3c0,0-25.3-184.93,105.52-208Z"/><path class="cls-10" d="M1081.11,450.36s56,356.29-32.49,457.13c0,0,113.16-16.81,118.76-172.55,0,0,20.17-318.18-56.41-428Z"/><path class="cls-10" d="M841.67,907.49S711.39,892,747.24,491.38c0,0,9-222.52,139.27-227.64L879,348.18s-74.89,22.3-65.22,198.37C813.75,546.55,806.13,830.17,841.67,907.49Z"/></g></g></g></svg>