<svg xmlns="http://www.w3.org/2000/svg" viewBox="0 0 82.44 42.23"><defs><style>path {fill: white !important;}.cls-1{fill:#58baea;}</style></defs><g id="Calque_2" data-name="Calque 2"><g id="Calque_1-2" data-name="Calque 1"><g id="EXEN"><path class="cls-1" d="M18,.85a.32.32,0,0,1,.17,0c.19.09.11.52.11.72V3.88a12.46,12.46,0,0,1-2,.32q-1.07.1-2.13.12a17.48,17.48,0,0,1-3.46-.26c-1.22-.24-2.41-.59-3.64-.81A17.26,17.26,0,0,0,3.32,3a16.85,16.85,0,0,0-1.88.18c-.08,0-.77.09-1.16.17A.24.24,0,0,1,0,3.11V.64A.26.26,0,0,1,.19.4C.61.32,1,.25,1.47.19A20.38,20.38,0,0,1,4.3,0,21.32,21.32,0,0,1,7.81.29c.94.16,1.83.45,2.75.63a17.75,17.75,0,0,0,2.82.3A23,23,0,0,0,17.85.87Z"/><path class="cls-1" d="M18,12.25h.08c.32.07.2.74.2,1V15.3a12.46,12.46,0,0,1-2,.32q-1.07.11-2.13.12a17.48,17.48,0,0,1-3.46-.26c-1.22-.24-2.41-.59-3.64-.81a17.26,17.26,0,0,0-3.73-.25,14.77,14.77,0,0,0-1.88.18c-.08,0-.77.09-1.16.16A.23.23,0,0,1,0,14.52V12.06a.25.25,0,0,1,.19-.24c.42-.08.85-.15,1.28-.21a20.38,20.38,0,0,1,2.83-.19,21.32,21.32,0,0,1,3.51.29c.92.16,1.81.45,2.73.62a19.15,19.15,0,0,0,2.83.32,18.65,18.65,0,0,0,4.41-.37Z"/><path class="cls-1" d="M18,23.91a.32.32,0,0,1,.14,0c.24.11.14.49.14.71v2.29a12.46,12.46,0,0,1-2,.32q-1.07.1-2.13.12a17.48,17.48,0,0,1-3.46-.26c-1.22-.24-2.41-.59-3.64-.81a17.26,17.26,0,0,0-3.73-.25,14.77,14.77,0,0,0-1.88.18c-.08,0-.77.09-1.16.16A.23.23,0,0,1,0,26.16V23.7a.25.25,0,0,1,.19-.24c.42-.08.85-.15,1.28-.21a20.38,20.38,0,0,1,2.83-.19,21.32,21.32,0,0,1,3.51.29c.92.16,1.8.44,2.71.61a16.55,16.55,0,0,0,2.8.31,21,21,0,0,0,4.41-.34A1.32,1.32,0,0,1,18,23.91Z"/><path class="cls-1" d="M31.32,17.73,24.85,8.87h4.9L34,14.5l4.32-5.63H43l-6.53,8.8,6.88,9.42h-5L33.91,21l-4.58,6.13H24.5Z"/><path class="cls-1" d="M46.35,11.24A8.88,8.88,0,0,1,53,8.63a8.6,8.6,0,0,1,6.53,2.63A9.5,9.5,0,0,1,62,18.09a10.82,10.82,0,0,1-.07,1.29H48.21A4.73,4.73,0,0,0,50,22.48a5.64,5.64,0,0,0,3.57,1.12,7,7,0,0,0,5.12-2l2.2,2.83a9.86,9.86,0,0,1-7.58,2.9,9.43,9.43,0,0,1-6.91-2.52A9.19,9.19,0,0,1,43.79,18,9.2,9.2,0,0,1,46.35,11.24Zm11.49,5.24a4.82,4.82,0,0,0-1.57-3.1,5.18,5.18,0,0,0-6.51,0,5,5,0,0,0-1.58,3.1Z"/><path class="cls-1" d="M69.29,8.87v2.67a6.74,6.74,0,0,1,5.92-2.91,6.61,6.61,0,0,1,5.29,2.25,9,9,0,0,1,1.94,6.06V27.09H78.06V17.8A6.16,6.16,0,0,0,77,14a3.62,3.62,0,0,0-3-1.34A4.16,4.16,0,0,0,70.67,14a5.65,5.65,0,0,0-1.19,3.83v9.29H65.1V8.87Z"/><path class="cls-1" d="M1.19,32.36a4,4,0,0,1,3-1.22,3.81,3.81,0,0,1,3,1.27L6.64,33a3.08,3.08,0,0,0-2.37-1,3.09,3.09,0,0,0-2.38,1A3.54,3.54,0,0,0,1,35.53,3.5,3.5,0,0,0,1.89,38a3.13,3.13,0,0,0,2.38,1,3.14,3.14,0,0,0,2.37-1l.62.61a3.79,3.79,0,0,1-3,1.27,4.06,4.06,0,0,1-3-1.22,4.81,4.81,0,0,1,0-6.32Z"/><path class="cls-1" d="M10.68,36.68a3.2,3.2,0,0,1,.89-2.32,3,3,0,0,1,2.26-.91,3,3,0,0,1,2.26.91A3.2,3.2,0,0,1,17,36.68a3.15,3.15,0,0,1-.89,2.3,3,3,0,0,1-2.26.92A3,3,0,0,1,11.57,39,3.19,3.19,0,0,1,10.68,36.68Zm.94,0a2.37,2.37,0,0,0,.63,1.7,2.2,2.2,0,0,0,3.16,0,2.64,2.64,0,0,0,0-3.4,2,2,0,0,0-1.58-.67,2,2,0,0,0-1.59.67A2.36,2.36,0,0,0,11.62,36.68Z"/><path class="cls-1" d="M21.75,33.5v1.19A2.37,2.37,0,0,1,24,33.45a2.3,2.3,0,0,1,1.82.75,3,3,0,0,1,.66,2.06v3.58h-.92V36.45a2.41,2.41,0,0,0-.46-1.59,1.58,1.58,0,0,0-1.29-.54,1.84,1.84,0,0,0-1.47.59,2.3,2.3,0,0,0-.53,1.63v3.3h-.93V33.5Z"/><path class="cls-1" d="M30.41,38.55l.7-.45a1.77,1.77,0,0,0,1.72,1,1.46,1.46,0,0,0,.92-.26.8.8,0,0,0,.34-.68.73.73,0,0,0-.25-.6,2.55,2.55,0,0,0-.91-.36L32.31,37q-1.65-.41-1.65-1.77a1.58,1.58,0,0,1,.61-1.3,2.47,2.47,0,0,1,1.59-.48,2.12,2.12,0,0,1,2,1.16l-.73.44a1.64,1.64,0,0,0-2.26-.52.78.78,0,0,0-.34.66c0,.47.35.8,1.05,1l.63.16a3.06,3.06,0,0,1,1.38.64A1.54,1.54,0,0,1,35,38.1a1.59,1.59,0,0,1-.6,1.31,2.46,2.46,0,0,1-1.61.49A2.42,2.42,0,0,1,30.41,38.55Z"/><path class="cls-1" d="M38.8,37.1V33.5h.93v3.41a2.47,2.47,0,0,0,.43,1.57,1.5,1.5,0,0,0,1.26.55,1.8,1.8,0,0,0,1.42-.59,2.36,2.36,0,0,0,.52-1.63V33.5h.93v6.34H43.4v-1.2a2.31,2.31,0,0,1-2.18,1.26,2.22,2.22,0,0,1-1.78-.75A3.09,3.09,0,0,1,38.8,37.1Z"/><path class="cls-1" d="M48.58,39.84V30.93h.92v8.91Z"/><path class="cls-1" d="M53.34,33.5h1.07V32l.94-.09V33.5h2.09v.81H55.35v3.8a1,1,0,0,0,.26.74,1.15,1.15,0,0,0,.81.24,4.06,4.06,0,0,0,1-.15v.76a3.49,3.49,0,0,1-1.16.2,2,2,0,0,1-1.39-.45,1.66,1.66,0,0,1-.48-1.28V34.31H53.34Z"/><path class="cls-1" d="M61.59,31.32a.58.58,0,0,1,.44-.19.65.65,0,0,1,.65.65.63.63,0,0,1-.19.47.63.63,0,0,1-.46.18.6.6,0,0,1-.44-.18.63.63,0,0,1-.19-.47A.64.64,0,0,1,61.59,31.32Zm.92,2.18v6.34h-.93V33.5Z"/><path class="cls-1" d="M67.69,33.5v1.19a2.37,2.37,0,0,1,2.22-1.24,2.31,2.31,0,0,1,1.83.75,3,3,0,0,1,.66,2.06v3.58h-.93V36.45A2.47,2.47,0,0,0,71,34.86a1.59,1.59,0,0,0-1.3-.54,1.87,1.87,0,0,0-1.47.59,2.35,2.35,0,0,0-.53,1.63v3.3H66.8V33.5Z"/><path class="cls-1" d="M77,34.33a2.81,2.81,0,0,1,2.16-.88,2.64,2.64,0,0,1,2.35,1.24V33.5h.89V39c0,2.12-1.05,3.19-3.16,3.19A4.54,4.54,0,0,1,77.69,42a3,3,0,0,1-1.16-.71l.46-.73a3,3,0,0,0,2.21.85,2.37,2.37,0,0,0,1.71-.54,2.25,2.25,0,0,0,.55-1.68v-.42a2.63,2.63,0,0,1-2.3,1.16A2.79,2.79,0,0,1,77,39a3.28,3.28,0,0,1-.82-2.33A3.33,3.33,0,0,1,77,34.33Zm.12,2.35a2.46,2.46,0,0,0,.59,1.72,2.08,2.08,0,0,0,1.6.65,2.15,2.15,0,0,0,1.61-.65,2.73,2.73,0,0,0,0-3.44,2.32,2.32,0,0,0-3.21,0A2.49,2.49,0,0,0,77.12,36.68Z"/></g></g></g></svg>